<mxfile host="app.diagrams.net" modified="2023-02-09T13:49:50.057Z" agent="5.0 (Windows NT 10.0; Win64; x64) AppleWebKit/537.36 (KHTML, like Gecko) Chrome/98.0.4758.102 Safari/537.36" etag="yFOHW92dGzaIQCOrFQGz" version="20.4.0" type="github">
  <diagram id="oZfxGokSAqi3smnZEbAq" name="第 1 页">
    <mxGraphModel dx="1662" dy="1923" grid="1" gridSize="10" guides="1" tooltips="1" connect="1" arrows="1" fold="1" page="1" pageScale="1" pageWidth="827" pageHeight="1169" math="0" shadow="0">
      <root>
        <mxCell id="0" />
        <mxCell id="1" parent="0" />
        <mxCell id="uQMAbHc09Gv5jh_O79Ju-16" value="" style="rounded=0;whiteSpace=wrap;html=1;fontSize=18;" vertex="1" parent="1">
          <mxGeometry y="-90" width="1560" height="700" as="geometry" />
        </mxCell>
        <mxCell id="uQMAbHc09Gv5jh_O79Ju-17" value="" style="rounded=0;whiteSpace=wrap;html=1;fontSize=18;" vertex="1" parent="1">
          <mxGeometry x="55" y="-10" width="1170" height="560" as="geometry" />
        </mxCell>
        <mxCell id="uQMAbHc09Gv5jh_O79Ju-2" value="&lt;font style=&quot;font-size: 18px;&quot;&gt;common&lt;/font&gt;" style="shape=folder;fontStyle=1;spacingTop=10;tabWidth=40;tabHeight=14;tabPosition=left;html=1;" vertex="1" parent="1">
          <mxGeometry x="80" y="430" width="1120" height="80" as="geometry" />
        </mxCell>
        <mxCell id="uQMAbHc09Gv5jh_O79Ju-4" value="&lt;font style=&quot;font-size: 18px;&quot;&gt;core&lt;br&gt;&lt;/font&gt;" style="shape=folder;fontStyle=1;spacingTop=10;tabWidth=40;tabHeight=14;tabPosition=left;html=1;" vertex="1" parent="1">
          <mxGeometry x="80" y="320" width="760" height="80" as="geometry" />
        </mxCell>
        <mxCell id="uQMAbHc09Gv5jh_O79Ju-6" value="&lt;font style=&quot;font-size: 18px;&quot;&gt;3d&lt;br&gt;&lt;/font&gt;" style="shape=folder;fontStyle=1;spacingTop=10;tabWidth=40;tabHeight=14;tabPosition=left;html=1;" vertex="1" parent="1">
          <mxGeometry x="280" y="220" width="160" height="80" as="geometry" />
        </mxCell>
        <mxCell id="uQMAbHc09Gv5jh_O79Ju-7" value="&lt;font style=&quot;font-size: 18px;&quot;&gt;controls&lt;br&gt;&lt;/font&gt;" style="shape=folder;fontStyle=1;spacingTop=10;tabWidth=40;tabHeight=14;tabPosition=left;html=1;" vertex="1" parent="1">
          <mxGeometry x="80" y="220" width="160" height="80" as="geometry" />
        </mxCell>
        <mxCell id="uQMAbHc09Gv5jh_O79Ju-8" value="&lt;font style=&quot;font-size: 18px;&quot;&gt;script&lt;br&gt;&lt;/font&gt;" style="shape=folder;fontStyle=1;spacingTop=10;tabWidth=40;tabHeight=14;tabPosition=left;html=1;" vertex="1" parent="1">
          <mxGeometry x="480" y="220" width="160" height="80" as="geometry" />
        </mxCell>
        <mxCell id="uQMAbHc09Gv5jh_O79Ju-9" value="&lt;font style=&quot;font-size: 18px;&quot;&gt;explorer&lt;br&gt;&lt;/font&gt;" style="shape=folder;fontStyle=1;spacingTop=10;tabWidth=40;tabHeight=14;tabPosition=left;html=1;" vertex="1" parent="1">
          <mxGeometry x="680" y="220" width="160" height="80" as="geometry" />
        </mxCell>
        <mxCell id="uQMAbHc09Gv5jh_O79Ju-10" value="&lt;font style=&quot;font-size: 18px;&quot;&gt;runtime&lt;br&gt;&lt;/font&gt;" style="shape=folder;fontStyle=1;spacingTop=10;tabWidth=40;tabHeight=14;tabPosition=left;html=1;" vertex="1" parent="1">
          <mxGeometry x="80" y="120" width="360" height="80" as="geometry" />
        </mxCell>
        <mxCell id="uQMAbHc09Gv5jh_O79Ju-11" value="&lt;font style=&quot;font-size: 18px;&quot;&gt;designer&lt;br&gt;&lt;/font&gt;" style="shape=folder;fontStyle=1;spacingTop=10;tabWidth=40;tabHeight=14;tabPosition=left;html=1;" vertex="1" parent="1">
          <mxGeometry x="480" y="120" width="360" height="80" as="geometry" />
        </mxCell>
        <mxCell id="uQMAbHc09Gv5jh_O79Ju-12" value="&lt;font style=&quot;font-size: 18px;&quot;&gt;portal&lt;br&gt;&lt;/font&gt;" style="shape=folder;fontStyle=1;spacingTop=10;tabWidth=40;tabHeight=14;tabPosition=left;html=1;" vertex="1" parent="1">
          <mxGeometry x="880.5" y="120" width="319.5" height="280" as="geometry" />
        </mxCell>
        <mxCell id="uQMAbHc09Gv5jh_O79Ju-14" value="&lt;font style=&quot;font-size: 18px;&quot;&gt;web&lt;/font&gt;" style="shape=folder;fontStyle=1;spacingTop=10;tabWidth=40;tabHeight=14;tabPosition=left;html=1;" vertex="1" parent="1">
          <mxGeometry x="80" y="10" width="1120" height="80" as="geometry" />
        </mxCell>
        <mxCell id="uQMAbHc09Gv5jh_O79Ju-15" value="&lt;font style=&quot;font-size: 18px;&quot;&gt;wechat app&lt;br&gt;&lt;/font&gt;" style="shape=folder;fontStyle=1;spacingTop=10;tabWidth=40;tabHeight=14;tabPosition=left;html=1;" vertex="1" parent="1">
          <mxGeometry x="1270" width="229.5" height="550" as="geometry" />
        </mxCell>
      </root>
    </mxGraphModel>
  </diagram>
</mxfile>
